<svg width="1042" height="535" viewBox="0 0 1042 535" fill="none" xmlns="http://www.w3.org/2000/svg">
<path d="M368.48 397.428L381.118 393.365L371.45 342.716L352.797 348.713L368.48 397.428Z" fill="#E1CBBC"/>
<path d="M379.686 385.861L379.674 385.864L366.423 391.008L366.411 391.012L363.345 392.208L370.177 421.651L370.54 423.228L379.524 420.348L379.314 418.728L378.389 411.359L383.99 417.229L385.206 418.511L409.01 410.871C410.425 410.416 411.541 409.44 412.199 408.208C412.922 406.916 413.122 405.331 412.622 403.806C412.117 398.798 389.067 395.015 385.687 393.146L382.937 384.585L379.686 385.861Z" fill="#2F2E41"/>
<path d="M345.283 221.499C347.334 223.19 348.774 225.506 349.383 228.092L352.096 239.67L380.72 363.165L349.389 374.936C329.21 334.688 317.154 309.463 316.472 281.163C316.281 273.322 316.971 265.233 318.595 256.525C318.595 256.525 298.195 270.402 273.951 286.284C271.823 287.677 269.66 289.094 267.468 290.507C247.357 303.595 225.678 317.321 211.221 325.363C202.425 330.258 194.009 330.22 186.459 327.229C164.906 318.751 150.22 286.397 153.072 276.369L185.631 227.942L225.91 248.009L230.121 250.103L300.569 208.787C310.848 202.759 323.801 203.79 332.995 211.369L345.283 221.499V221.499Z" fill="#2F2E41"/>
<path d="M555.999 510.535C558.738 510.707 560.253 507.305 558.18 505.322L557.974 504.503C558.001 504.438 558.028 504.372 558.056 504.307C560.826 497.704 570.217 497.75 572.964 504.362C575.402 510.23 578.507 516.109 579.271 522.314C579.614 525.053 579.46 527.844 578.851 530.532C584.565 518.06 587.571 504.441 587.571 490.745C587.571 487.304 587.383 483.863 586.997 480.43C586.68 477.623 586.244 474.832 585.678 472.067C582.62 457.122 575.999 442.887 566.448 430.997C561.857 428.489 558.028 424.568 555.715 419.869C554.884 418.174 554.233 416.351 553.925 414.493C554.447 414.562 555.895 406.61 555.501 406.122C556.229 405.017 557.532 404.469 558.328 403.391C562.283 398.032 567.732 398.968 570.577 406.25C576.654 409.315 576.713 414.398 572.984 419.287C570.612 422.397 570.286 426.606 568.204 429.935C568.418 430.209 568.641 430.475 568.855 430.749C572.782 435.782 576.179 441.192 579.042 446.876C578.233 440.559 579.427 432.949 581.464 428.044C583.782 422.454 588.128 417.747 591.955 412.915C596.551 407.112 605.977 409.645 606.787 417.002C606.795 417.073 606.803 417.144 606.81 417.215C606.242 417.536 605.685 417.876 605.141 418.236C602.038 420.286 603.11 425.093 606.787 425.66L606.87 425.673C606.664 427.718 606.313 429.747 605.799 431.742C610.709 450.714 600.11 457.625 584.976 457.935C584.642 458.106 584.316 458.277 583.982 458.44C585.516 462.754 586.74 467.18 587.648 471.665C588.462 475.628 589.028 479.634 589.344 483.658C589.739 488.733 589.704 493.835 589.276 498.903L589.302 498.723C590.389 493.142 593.422 487.929 597.825 484.317C604.383 478.932 613.65 476.95 620.726 472.622C624.132 470.539 628.497 473.231 627.902 477.177L627.873 477.366C626.82 477.794 625.792 478.29 624.798 478.847C624.23 479.167 623.673 479.508 623.129 479.867C620.026 481.918 621.099 486.724 624.775 487.291L624.858 487.304C624.918 487.313 624.97 487.321 625.029 487.33C623.222 491.618 620.704 495.599 617.552 499.031C614.482 515.594 601.298 517.165 587.194 512.342H587.186C585.644 519.053 583.391 525.61 580.496 531.859H556.597C556.512 531.593 556.435 531.319 556.358 531.054C558.568 531.191 560.795 531.062 562.97 530.66C561.197 528.486 559.424 526.295 557.651 524.12C557.608 524.078 557.574 524.035 557.54 523.992C556.64 522.879 555.732 521.775 554.833 520.662L554.832 520.661C554.776 517.245 555.186 513.84 555.998 510.536L555.999 510.535Z" fill="#E8F1FF"/>
<path d="M694.443 502.829C698.173 503.063 700.234 498.432 697.413 495.733L697.132 494.617C697.169 494.528 697.206 494.439 697.243 494.35C701.015 485.361 713.799 485.423 717.539 494.425C720.859 502.414 725.085 510.418 726.126 518.865C726.592 522.594 726.382 526.393 725.554 530.052C733.333 513.073 737.426 494.533 737.426 475.887C737.426 471.203 737.169 466.518 736.644 461.845C736.213 458.023 735.618 454.224 734.849 450.46C730.686 430.113 721.671 410.733 708.669 394.547C702.418 391.132 697.206 385.795 694.057 379.397C692.926 377.09 692.04 374.608 691.62 372.079C692.331 372.172 694.302 361.346 693.766 360.682C694.757 359.179 696.531 358.431 697.614 356.965C702.998 349.669 710.417 350.943 714.29 360.857C722.563 365.029 722.643 371.949 717.566 378.605C714.337 382.839 713.893 388.569 711.059 393.102C711.351 393.475 711.654 393.836 711.946 394.209C717.292 401.061 721.916 408.426 725.814 416.164C724.712 407.565 726.338 397.205 729.111 390.526C732.268 382.917 738.184 376.509 743.393 369.931C749.651 362.03 762.483 365.478 763.586 375.494C763.597 375.591 763.607 375.688 763.617 375.785C762.843 376.221 762.085 376.685 761.345 377.174C757.121 379.966 758.581 386.509 763.585 387.281L763.699 387.298C763.419 390.083 762.941 392.845 762.241 395.561C768.925 421.39 754.495 430.797 733.892 431.22C733.438 431.453 732.994 431.686 732.54 431.908C734.627 437.781 736.295 443.806 737.531 449.912C738.638 455.308 739.408 460.761 739.84 466.238C740.376 473.149 740.329 480.094 739.746 486.993L739.781 486.748C741.262 479.15 745.39 472.054 751.384 467.136C760.314 459.806 772.929 457.107 782.562 451.215C787.199 448.378 793.141 452.044 792.332 457.416C792.319 457.502 792.306 457.588 792.292 457.673C790.858 458.256 789.459 458.932 788.106 459.689C787.332 460.126 786.574 460.589 785.833 461.078C781.61 463.87 783.069 470.413 788.074 471.185L788.188 471.203C788.269 471.214 788.339 471.226 788.421 471.238C785.96 477.076 782.532 482.495 778.24 487.168C774.061 509.716 756.112 511.855 736.913 505.289H736.901C734.802 514.425 731.735 523.352 727.793 531.859H695.258C695.142 531.497 695.037 531.124 694.932 530.763C697.94 530.95 700.972 530.775 703.934 530.227C701.52 527.267 699.107 524.284 696.693 521.324C696.634 521.266 696.588 521.207 696.541 521.149C695.317 519.634 694.08 518.131 692.856 516.616L692.855 516.614C692.779 511.964 693.337 507.328 694.442 502.83L694.443 502.829H694.443Z" fill="#E8F1FF"/>
<path d="M876.94 510.535C879.68 510.707 881.194 507.305 879.121 505.322L878.915 504.503C878.942 504.438 878.97 504.372 878.997 504.307C881.768 497.704 891.158 497.75 893.905 504.362C896.344 510.23 899.448 516.109 900.213 522.314C900.555 525.053 900.401 527.844 899.793 530.532C905.506 518.06 908.513 504.441 908.513 490.745C908.513 487.304 908.324 483.863 907.939 480.43C907.622 477.623 907.185 474.832 906.62 472.067C903.562 457.122 896.94 442.887 887.39 430.997C882.798 428.489 878.969 424.568 876.657 419.869C875.826 418.174 875.175 416.351 874.866 414.493C875.389 414.562 876.837 406.61 876.443 406.122C877.171 405.017 878.474 404.469 879.269 403.391C883.224 398.032 888.674 398.968 891.518 406.25C897.595 409.315 897.654 414.398 893.925 419.287C891.553 422.397 891.227 426.606 889.146 429.935C889.36 430.209 889.582 430.475 889.797 430.749C893.724 435.782 897.12 441.192 899.983 446.876C899.174 440.559 900.369 432.949 902.405 428.044C904.724 422.454 909.07 417.747 912.896 412.915C917.493 407.112 926.919 409.645 927.729 417.002C927.736 417.073 927.744 417.144 927.752 417.215C927.183 417.536 926.626 417.876 926.082 418.236C922.98 420.286 924.052 425.093 927.728 425.66L927.812 425.673C927.606 427.718 927.255 429.747 926.741 431.742C931.65 450.714 921.051 457.625 905.917 457.935C905.583 458.106 905.258 458.277 904.924 458.44C906.457 462.754 907.682 467.18 908.59 471.665C909.404 475.628 909.969 479.634 910.286 483.658C910.68 488.733 910.646 493.835 910.217 498.903L910.243 498.723C911.331 493.142 914.363 487.929 918.766 484.317C925.325 478.932 934.591 476.95 941.667 472.622C945.073 470.539 949.438 473.231 948.844 477.177L948.815 477.366C947.761 477.794 946.733 478.29 945.74 478.847C945.171 479.167 944.614 479.508 944.07 479.867C940.968 481.918 942.04 486.724 945.716 487.291L945.8 487.304C945.86 487.313 945.911 487.321 945.971 487.33C944.164 491.618 941.645 495.599 938.493 499.031C935.423 515.594 922.239 517.165 908.136 512.342H908.127C906.586 519.053 904.333 525.61 901.437 531.859H877.539C877.453 531.593 877.376 531.319 877.299 531.054C879.509 531.191 881.736 531.062 883.912 530.66C882.139 528.486 880.366 526.295 878.593 524.12C878.55 524.078 878.515 524.035 878.481 523.992C877.582 522.879 876.674 521.775 875.774 520.662L875.774 520.661C875.718 517.245 876.127 513.84 876.939 510.536L876.94 510.535Z" fill="#E8F1FF"/>
<path d="M283.618 502.13C287.438 502.369 289.549 497.627 286.659 494.863L286.371 493.72C286.409 493.629 286.447 493.538 286.486 493.446C290.348 484.241 303.44 484.305 307.27 493.523C310.67 501.705 314.998 509.901 316.064 518.552C316.541 522.371 316.327 526.262 315.479 530.009C323.444 512.621 327.636 493.634 327.636 474.539C327.636 469.742 327.373 464.944 326.836 460.159C326.394 456.244 325.785 452.354 324.996 448.499C320.733 427.662 311.502 407.816 298.186 391.24C291.785 387.743 286.447 382.277 283.223 375.725C282.064 373.362 281.157 370.82 280.727 368.231C281.455 368.326 283.474 357.239 282.924 356.559C283.939 355.02 285.756 354.255 286.865 352.752C292.379 345.281 299.976 346.586 303.942 356.738C312.415 361.011 312.497 368.098 307.298 374.914C303.991 379.25 303.536 385.117 300.634 389.76C300.933 390.142 301.244 390.512 301.542 390.894C307.017 397.911 311.752 405.453 315.744 413.378C314.616 404.571 316.281 393.961 319.121 387.122C322.353 379.33 328.412 372.767 333.747 366.031C340.156 357.939 353.297 361.471 354.426 371.728C354.437 371.827 354.448 371.926 354.458 372.026C353.665 372.473 352.889 372.947 352.131 373.448C347.805 376.307 349.3 383.008 354.425 383.799L354.542 383.817C354.255 386.669 353.765 389.497 353.049 392.278C359.893 418.729 345.117 428.363 324.017 428.796C323.552 429.035 323.098 429.273 322.632 429.5C324.77 435.515 326.477 441.685 327.743 447.938C328.878 453.464 329.666 459.049 330.108 464.658C330.657 471.735 330.609 478.848 330.012 485.913L330.048 485.662C331.565 477.881 335.792 470.613 341.931 465.577C351.075 458.07 363.994 455.306 373.859 449.272C378.608 446.368 384.693 450.121 383.864 455.623C383.851 455.711 383.837 455.799 383.824 455.886C382.355 456.483 380.922 457.175 379.537 457.951C378.744 458.398 377.968 458.872 377.209 459.374C372.884 462.232 374.379 468.933 379.504 469.724L379.62 469.742C379.704 469.754 379.775 469.766 379.859 469.778C377.339 475.757 373.828 481.306 369.434 486.092C365.154 509.182 346.773 511.373 327.11 504.649H327.098C324.949 514.005 321.808 523.147 317.771 531.859H284.453C284.333 531.489 284.226 531.107 284.118 530.737C287.199 530.928 290.304 530.749 293.338 530.188C290.866 527.157 288.394 524.101 285.922 521.07C285.862 521.011 285.814 520.951 285.766 520.891C284.512 519.34 283.247 517.8 281.993 516.249L281.992 516.247C281.913 511.484 282.485 506.738 283.617 502.131L283.618 502.13Z" fill="#E8F1FF"/>
<path d="M103.763 510.535C106.503 510.707 108.017 507.305 105.944 505.322L105.738 504.503C105.765 504.438 105.792 504.372 105.82 504.307C108.59 497.704 117.981 497.75 120.728 504.362C123.166 510.23 126.271 516.109 127.035 522.314C127.378 525.053 127.224 527.844 126.616 530.532C132.329 518.06 135.336 504.441 135.336 490.745C135.336 487.304 135.147 483.863 134.762 480.43C134.445 477.623 134.008 474.832 133.442 472.067C130.385 457.122 123.763 442.887 114.212 430.997C109.621 428.489 105.792 424.568 103.479 419.869C102.649 418.174 101.998 416.351 101.689 414.493C102.212 414.562 103.659 406.61 103.265 406.122C103.993 405.017 105.297 404.469 106.092 403.391C110.047 398.032 115.496 398.968 118.341 406.25C124.418 409.315 124.477 414.398 120.748 419.287C118.376 422.397 118.05 426.606 115.968 429.935C116.183 430.209 116.405 430.475 116.619 430.749C120.546 435.782 123.943 441.192 126.806 446.876C125.997 440.559 127.191 432.949 129.228 428.044C131.547 422.454 135.892 417.747 139.719 412.915C144.316 407.112 153.741 409.645 154.551 417.002C154.559 417.073 154.567 417.144 154.574 417.215C154.006 417.536 153.449 417.876 152.905 418.236C149.802 420.286 150.875 425.093 154.551 425.66L154.634 425.673C154.429 427.718 154.077 429.747 153.564 431.742C158.473 450.714 147.874 457.625 132.74 457.935C132.406 458.106 132.081 458.277 131.746 458.44C133.28 462.754 134.505 467.18 135.413 471.665C136.226 475.628 136.792 479.634 137.109 483.658C137.503 488.733 137.468 493.835 137.04 498.903L137.066 498.723C138.154 493.142 141.186 487.929 145.589 484.317C152.148 478.932 161.414 476.95 168.49 472.622C171.896 470.539 176.261 473.231 175.666 477.177L175.637 477.366C174.584 477.794 173.556 478.29 172.562 478.847C171.994 479.167 171.437 479.508 170.893 479.867C167.791 481.918 168.863 486.724 172.539 487.291L172.622 487.304C172.682 487.313 172.734 487.321 172.794 487.33C170.986 491.618 168.468 495.599 165.316 499.031C162.246 515.594 149.062 517.165 134.959 512.342H134.95C133.408 519.053 131.155 525.61 128.26 531.859H104.362C104.276 531.593 104.199 531.319 104.122 531.054C106.332 531.191 108.559 531.062 110.735 530.66C108.962 528.486 107.188 526.295 105.415 524.12C105.372 524.078 105.338 524.035 105.304 523.992C104.405 522.879 103.497 521.775 102.597 520.662L102.597 520.661C102.54 517.245 102.95 513.84 103.762 510.536L103.763 510.535Z" fill="#E8F1FF"/>
<path d="M201.245 116.054C201.245 116.054 158.937 114.067 168.257 125.818C174.322 133.464 202.597 176.531 218.638 185.152C226.627 189.445 236.576 185.978 240.178 177.659L270.072 108.623L250.459 101.513L226.728 156.138L201.245 116.054Z" fill="#E1CBBC"/>
<path d="M260.643 111.932C268.7 111.932 275.231 105.405 275.231 97.354C275.231 89.3027 268.7 82.7758 260.643 82.7758C252.586 82.7758 246.055 89.3027 246.055 97.354C246.055 105.405 252.586 111.932 260.643 111.932Z" fill="#E1CBBC"/>
<path d="M277.448 177.744L220.681 172.057L220.912 171.287C232.354 133.119 241.698 99.8255 240.135 78.9508C240.091 78.3567 240.38 77.7937 240.891 77.4792C241.409 77.1634 242.052 77.1596 242.571 77.4728L302.589 113.776L298.076 134.179L277.448 177.744Z" fill="#E6E6E6"/>
<path d="M214.121 214.254L227.195 256.863L167.704 263.291L188.923 208.953L214.121 214.254Z" fill="#E1CBBC"/>
<path d="M228.683 181.281C227.264 191.406 226.932 200.975 228.709 206.303C229.182 207.719 236.258 218.075 236.667 219.556C240.319 232.787 224.731 235.459 224.731 235.459L164.928 255.3C161.485 256.442 158.586 252.456 160.786 249.573C165.691 243.145 170.172 233.857 169.852 221.557C169.355 202.389 160.866 171.904 156.174 156.403C154.243 150.025 154.709 143.17 157.474 137.106L164.15 122.464L173.858 101.193L176.987 85.7003L204.838 87.0256L208.273 99.6292L234.187 139.163C235.234 140.767 235.924 142.556 236.229 144.398C236.64 146.704 236.441 149.116 235.632 151.382C232.94 158.923 230.195 170.413 228.683 181.281H228.683Z" fill="#329FF8"/>
<path d="M216.048 57.1654C215.33 54.6529 220.281 70.0114 217.892 70.2886C207.01 71.5362 192.072 78.0307 184.493 81.0606C184.152 81.0209 183.81 80.9814 183.479 80.9319C182.666 80.8428 181.873 80.714 181.09 80.5655C163.442 77.2287 156.655 50.1379 156.655 49.8904C156.655 48.6725 159.58 15.2228 164.188 14.7277C165.383 14.599 166.597 14.5296 167.832 14.5296H179.266C181.695 14.0147 184.105 13.6583 186.444 13.49H186.464C219.422 9.73431 235.336 24.2054 225.936 42.8182C225.926 42.838 225.906 42.8578 225.896 42.8776C225.404 43.6103 224.972 44.3034 224.591 44.9668C224.219 45.5906 223.908 46.1847 223.637 46.749C221.539 51.1057 226.932 56.5878 223.356 57.611C218.6 58.9719 235.865 103.702 217.039 103.702C226.196 106.304 218.03 64.0965 216.048 57.1654H216.048Z" fill="#2F2E41"/>
<path d="M195.5 83.4113C210.451 83.4113 222.571 71.2993 222.571 56.3583C222.571 41.4174 210.451 29.3053 195.5 29.3053C180.549 29.3053 168.428 41.4174 168.428 56.3583C168.428 71.2993 180.549 83.4113 195.5 83.4113Z" fill="#E1CBBC"/>
<path d="M225.936 44.2941C225.486 44.5326 225.048 44.7447 224.597 44.9699C224.12 45.1953 223.642 45.4206 223.178 45.6326C220.154 46.9977 217.316 47.9651 214.717 48.4025C213.987 46.123 213.006 43.923 211.786 41.8555C212.025 44.1483 211.826 46.4941 211.202 48.7206C207.582 48.6543 204.545 47.2892 202.25 44.2941C202.131 41.2061 201.442 38.1314 200.195 35.282C200.434 38.4362 199.558 41.6567 197.808 44.2941L198.272 81.3892C188.988 87.5518 209.041 108.333 206.229 113.196C205.42 113.104 177.848 78.5929 177.066 78.447C159.414 75.1073 148.208 46.0567 149.64 44.4133C149.64 39.576 150.767 35.017 152.783 30.9351C155.396 25.6339 159.494 21.1809 164.573 18.1194C167.557 16.6748 170.713 15.4953 173.989 14.5941C174.069 14.5676 174.135 14.5544 174.215 14.5278C175.209 14.2628 176.23 14.011 177.238 13.8122C179.32 13.3748 181.429 13.0435 183.578 12.8447C183.737 12.8314 183.883 12.8314 184.028 12.8314C184.904 12.8314 185.726 13.07 186.442 13.4941H186.469C186.986 13.8122 187.45 14.2098 187.808 14.7001C188.431 15.4953 188.79 16.476 188.79 17.5628H198.829C199.2 17.5628 199.572 17.5627 199.943 17.5893C213.934 18.1459 225.167 29.1327 225.897 42.876C225.923 43.3531 225.937 43.8169 225.937 44.2941H225.936Z" fill="#2F2E41"/>
<path d="M184.58 17.8227C184.58 27.6659 176.595 35.6453 166.745 35.6453C156.896 35.6453 148.911 27.6659 148.911 17.8227C148.911 7.97948 156.896 0 166.745 0C176.595 0 184.58 7.97948 184.58 17.8227Z" fill="#2F2E41"/>
<path d="M1016.54 415.48V363.563C1023.54 360.691 1028.48 353.818 1028.48 345.786C1028.48 337.755 1023.54 330.882 1016.54 328.01V306.027C1016.54 303.466 1014.46 301.389 1011.9 301.389C1009.33 301.389 1007.26 303.466 1007.26 306.027V326.57C820.574 333.227 635.425 339.546 537.78 326.57V306.027C537.78 303.466 535.702 301.389 533.139 301.389C530.575 301.389 528.497 303.466 528.497 306.027V326.57H61.6729V306.027C61.6729 303.466 59.5947 301.389 57.0311 301.389C54.4676 301.389 52.3894 303.466 52.3894 306.027V327.525C44.6931 330.036 39.1274 337.257 39.1274 345.786C39.1274 354.316 44.6931 361.537 52.3894 364.048V414.995C44.6931 417.505 39.1274 424.727 39.1274 433.256C39.1274 441.786 44.6931 449.007 52.3894 451.518V527.353C52.3894 529.914 54.4676 531.991 57.0311 531.991C59.5947 531.991 61.6729 529.914 61.6729 527.353V452.473H528.497V527.353C528.497 529.914 530.575 531.991 533.139 531.991C535.702 531.991 537.78 529.914 537.78 527.353V452.473H1007.26V527.353C1007.26 529.914 1009.33 531.991 1011.9 531.991C1014.46 531.991 1016.54 529.914 1016.54 527.353V451.033C1023.54 448.161 1028.48 441.288 1028.48 433.256C1028.48 425.225 1023.54 418.352 1016.54 415.48ZM61.6729 365.003C243.293 350.256 421.001 337.726 528.497 365.003C518.567 381.497 518.381 397.846 528.497 414.039C404.613 428.653 238.822 423.962 61.6729 414.039C67.2443 399.49 66.2165 382.813 61.6729 365.003ZM537.78 414.039V365.003H1007.26C987.601 380.912 984.613 397.191 1007.26 414.039C916.401 445.055 714.164 423.439 537.78 414.039Z" fill="#E8F1FF"/>
<path d="M276.783 198.102C275.821 198.102 274.846 198.007 273.866 197.808L218.33 186.532C214.794 185.813 211.813 183.565 210.153 180.363C208.492 177.161 208.373 173.432 209.826 170.131L231.301 121.314C232.478 118.636 235.237 116.932 238.156 117.11L288.032 119.89C289.382 119.948 290.154 119.119 290.457 118.303C290.76 117.487 290.709 116.327 289.655 115.518L241.671 78.7088C241.342 78.4526 241.271 77.9996 241.506 77.6553C241.741 77.311 242.187 77.2114 242.545 77.4236L304.046 113.304C308.574 115.947 310.676 121.293 309.158 126.307L290.525 187.867C288.649 194.067 283.021 198.102 276.783 198.102ZM241.873 78.5665L241.878 78.569L241.873 78.5665Z" fill="#3F3D56"/>
<path d="M212.86 139.702C212.86 139.702 183.834 108.878 182.357 123.799C181.396 133.509 171.753 184.108 177.284 201.45C180.038 210.086 189.602 214.507 197.978 211.031L267.497 182.185L258.348 163.447L203.285 186.218L212.86 139.702Z" fill="#E1CBBC"/>
<path d="M268.561 182.112C276.618 182.112 283.149 175.585 283.149 167.534C283.149 159.483 276.618 152.956 268.561 152.956C260.504 152.956 253.973 159.483 253.973 167.534C253.973 175.585 260.504 182.112 268.561 182.112Z" fill="#E1CBBC"/>
<path d="M0 533.724C0 534.599 0.702923 535.302 1.57826 535.302H1040.38C1041.26 535.302 1041.96 534.599 1041.96 533.724C1041.96 532.85 1041.26 532.147 1040.38 532.147H1.57826C0.702923 532.147 0 532.85 0 533.724Z" fill="#E8F1FF"/>
<path d="M195.417 490.351L206.087 498.245L241.635 460.873L225.887 449.222L195.417 490.351Z" fill="#E1CBBC"/>
<path d="M208.926 501.833L214.282 494.604L211.35 492.7L199.43 484.927L196.668 483.134L176.71 505.849L175.64 507.066L183.216 512.672L184.415 511.564L189.856 506.519L188.356 514.48L188.024 516.229L208.11 531.091C209.309 531.979 210.748 532.317 212.125 532.136C213.608 531.963 215.01 531.201 215.965 529.912C219.745 526.583 209.378 505.67 208.926 501.833V501.833Z" fill="#2F2E41"/>
<path d="M325.522 378.591L322.83 381.679L315.006 390.638L231.362 485.941L203.511 467.386C224.439 427.521 237.9 403.017 260.498 385.947C266.758 381.215 273.734 377.054 281.758 373.29C281.758 373.29 258.576 364.835 231.521 354.431C229.147 353.517 226.733 352.589 224.306 351.635C201.933 342.954 178.128 333.372 163.155 326.335C154.044 322.054 149.164 315.202 147.188 307.33C141.498 284.893 159.216 254.093 169.03 250.554L227.383 248.712L234.584 293.11L235.34 297.748C235.34 297.748 256.719 308.072 279.158 318.396C282.527 319.934 285.909 321.484 289.251 322.995C294.555 325.381 299.728 327.687 304.528 329.767C304.638 329.815 304.748 329.862 304.858 329.91C318.771 335.915 327.431 349.981 326.423 365.092L325.522 378.591Z" fill="#2F2E41"/>
</svg>
